# AST/ASF file generated using VICON BodyLanguage
# -----------------------------------------------
:version 1.10
:name VICON
:units
  mass 1.0
  length 0.45
  angle deg
:documentation
   .ast/.asf automatically generated from VICON data using
   VICON BodyBuilder and BodyLanguage model FoxedUp or BRILLIANT.MOD
:root
   order TX TY TZ RX RY RZ
   axis XYZ
   position 0 0 0  
   orientation 0 0 0 
:bonedata
  begin
     id 1 
     name lhipjoint
     direction 0.645893 -0.654526 0.392961 
     length 2.38111 
     axis 0 0 0  XYZ
  end
  begin
     id 2 
     name lfemur
     direction 0.34202 -0.939693 0  
     length 6.6822  
     axis 0 0 20  XYZ
    dof rx ry rz
    limits (-160.0 20.0)
           (-70.0 70.0)
           (-60.0 70.0)
  end
  begin
     id 3 
     name ltibia
     direction 0.34202 -0.939693 0   
     length 6.93904   
     axis 0 0 20   XYZ
    dof rx
    limits (-10.0 170.0)
  end
  begin
     id 4 
     name lfoot
     direction 0.0694967 -0.190941 0.979138   
     length 2.13616   
     axis -90 7.62852e-016 20   XYZ
    dof rx rz
    limits (-45.0 90.0)
           (-70.0 20.0)
  end
  begin
     id 5 
     name ltoes
     direction 1.535e-011 -4.2202e-011 1   
     length 1.07536   
     axis -90 7.62852e-016 20   XYZ
    dof rx
    limits (-90.0 20.0)
  end
  begin
     id 6 
     name rhipjoint
     direction -0.700219 -0.612087 0.367481   
     length 2.54621  
     axis 0 0 0  XYZ 
  end
  begin
     id 7 
     name rfemur
     direction -0.34202 -0.939693 0   
     length 6.55353   
     axis 0 0 -20   XYZ
    dof rx ry rz
    limits (-160.0 20.0)
           (-70.0 70.0)
           (-70.0 60.0)
  end
  begin
     id 8 
     name rtibia
     direction -0.34202 -0.939693 0   
     length 6.8736   
     axis 0 0 -20   XYZ
    dof rx
    limits (-10.0 170.0)
 end
 begin
     id 9 
     name rfoot
     direction -0.0679995 -0.186827 0.980037   
     length 2.1218  
     axis -90 -7.62852e-016 -20   XYZ
    dof rx rz
    limits (-45.0 90.0)
           (-20.0 70.0)
  end
  begin
     id 10 
     name rtoes
     direction -1.53589e-011 -4.21772e-011 1   
     length 1.06864   
     axis -90 -7.62852e-016 -20   XYZ
    dof rx
    limits (-90.0 20.0)
  end
  begin
     id 11 
     name lowerback
     direction -0.0416607 0.996347 -0.0745409   
     length 2.12205   
     axis 0 0 0   XYZ
    dof rx ry rz
    limits (-20.0 45.0)
           (-30.0 30.0)
           (-30.0 30.0)
  end
  begin
     id 12 
     name upperback
     direction -0.000153993 0.999276 -0.0380568   
     length 2.12759   
     axis 0 0 0   XYZ
    dof rx ry rz
    limits (-20.0 45.0)
           (-30.0 30.0)
           (-30.0 30.0)
  end
  begin
     id 13 
     name thorax
     direction 0.0187671 0.999821 -0.00241421   
     length 2.13704   
     axis 0 0 0   XYZ
    dof rx ry rz
    limits (-20.0 45.0)
           (-30.0 30.0)
           (-30.0 30.0)
  end
  begin
     id 14 
     name lowerneck
     direction 0.0268157 0.964865 0.261374   
     length 1.65253   
     axis 0 0 0   XYZ
    dof rx ry rz
    limits (-20.0 45.0)
           (-30.0 30.0)
           (-30.0 30.0)
  end
  begin
     id 15 
     name upperneck
     direction 0.00263774 0.939908 -0.341418   
     length 1.72375   
     axis 0 0 0   XYZ
    dof rx ry rz
    limits (-20.0 45.0)
           (-30.0 30.0)
           (-30.0 30.0)
  end
  begin
     id 16
     name head
     direction -0.00526001 0.989001 -0.147818  
     length 1.74878  
     axis 0 0 0   XYZ
    dof rx ry rz
    limits (-20.0 45.0)
           (-30.0 30.0)
           (-30.0 30.0)
  end
  begin
     id 17 
     name lclavicle
     direction 0.881214 0.461162 -0.103884  
     length 3.25108  
     axis 0 0 0   XYZ
    dof ry rz
    limits (-20.0 10.0)
           (0.0 20.0)
  end
  begin
     id 18 
     name lhumerus
     direction 1 -4.4899e-011 3.38092e-027   
     length 4.87408   
     axis 180 -30 -90   XYZ
    dof rx ry rz
    limits (-60.0 90.0)
           (-90.0 90.0)
           (-90.0 90.0)
  end
  begin
     id 19
     name lradius
     direction 1 -4.48931e-011 9.96288e-027   
     length 2.76729   
     axis 180 -30 -90   XYZ
    dof rx
    limits (-10.0 170.0)
  end
  begin
     id 20
     name lwrist
     direction 1 -4.4896e-011 1.50617e-026   
     length 1.38364   
     axis -9.31234e-015 90 90   XYZ
    dof ry
    limits (-180.0 0.0)
 end
  begin
     id 21 
     name lhand
     direction 1 -4.49038e-011 3.01286e-026   
     length 0.98922   
     axis -1.92217e-014 90 90   XYZ
    dof rx rz
    limits (-90.0 90.0)
           (-45.0 45.0)
  end
  begin
     id 22 
     name lfingers
     direction 1 -4.49051e-011 6.02588e-026   
     length 0.797535   
     axis -3.84436e-014 90 90   XYZ
    dof rx
    limits (0.0 90.0)
  end
  begin
     id 23
     name lthumb
     direction 0.707107 -6.34901e-011 0.707107   
     length 1.14511   
     axis -90 45 2.19363e-014   XYZ
    dof rx rz
    limits (-45.0 45.0)
           (-45.0 45.0)
  end
  begin
     id 24 
     name rclavicle
     direction -0.893894 0.441652 -0.0767889   
     length 3.29361  
     axis 0 0 0   XYZ 
    dof ry rz
    limits (-10.0 20.0)
           (-20.0 0.0)
  end
  begin
     id 25 
     name rhumerus
     direction -1 -4.48945e-011 8.0491e-028  
     length 4.71404   
     axis 180 30 90   XYZ
    dof rx ry rz
    limits (-90.0 60.0)
           (-90.0 90.0)
           (-90.0 90.0)
  end
  begin
     id 26 
     name rradius
     direction -1 -4.48986e-011 9.27795e-027   
     length 2.83468   
     axis 180 30 90   XYZ
    dof rx
    limits (-10.0 170.0)
  end
  begin
     id 27 
     name rwrist
     direction -1 -4.49029e-011 1.5064e-026   
     length 1.41734   
     axis -9.31234e-015 -90 -90   XYZ
    dof ry
    limits (-180.0 0.0)
  end
  begin
     id 28
     name rhand
     direction -1 -4.48857e-011 3.01165e-026   
     length 0.868195   
     axis -1.92217e-014 -90 -90   XYZ
    dof rx rz
    limits (-90.0 90.0)
           (-45.0 45.0)
  end
  begin
     id 29
     name rfingers
     direction -1 -4.49048e-011 6.02585e-026   
     length 0.699961   
     axis -3.84436e-014 -90 -90   XYZ
    dof rx
    limits (0.0 90.0)
  end
  begin
     id 30
     name rthumb
     direction -0.707107 -6.34854e-011 0.707107   
     length 1.00501   
     axis -90 -45 -2.19363e-014   XYZ
    dof rx rz
    limits (-45.0 45.0)
           (-45.0 45.0)
  end
:hierarchy
  begin
    root lhipjoint rhipjoint lowerback
    lhipjoint lfemur
    lfemur ltibia
    ltibia lfoot
    lfoot ltoes
    rhipjoint rfemur
    rfemur rtibia
    rtibia rfoot
    rfoot rtoes
    lowerback upperback
    upperback thorax
    thorax lowerneck lclavicle rclavicle
    lowerneck upperneck
    upperneck head
    lclavicle lhumerus
    lhumerus lradius
    lradius lwrist
    lwrist lhand lthumb
    lhand lfingers
    rclavicle rhumerus
    rhumerus rradius
    rradius rwrist
    rwrist rhand rthumb
    rhand rfingers
  end

#!OML:ASF H:\ManfredObstacles\Project 1\Capture day 2\Session 1\male.ASF
:FULLY-SPECIFIED
:DEGREES
65
root 1.96042 15.2381 23.4587 -177.907 -14.014 -179.926
lowerback 5.54968 -3.65636 -5.05845
upperback 5.04375 -5.40844 0.226601
thorax 2.60147 -3.01363 3.19752
lowerneck -32.9939 2.81328 2.18746
upperneck 41.8027 0.659037 -1.64144
head 24.3587 -0.554245 -1.58863
rclavicle 8.24956e-015 -1.07344e-014
rhumerus -45.893 -8.81761 -75.0763
rradius 42.3023
rwrist 18.3747
rhand -10.1462 -8.1954
rfingers 7.12502
rthumb 15.8429 -37.5672
lclavicle 8.24956e-015 -1.07344e-014
lhumerus -25.3653 -24.0542 91.7915
lradius 51.3397
lwrist -26.8585
lhand -6.48108 9.8469
lfingers 7.12502
lthumb 19.3698 38.9022
rfemur -34.8598 9.68928 13.0818
rtibia 31.8059
rfoot 6.07625 -4.37825
rtoes -15.6003
lfemur 0.83159 -5.9533 -16.33
ltibia 48.1995
lfoot 7.12779 13.7524
ltoes -5.4931
66
root 2.01413 15.2174 23.3457 -177.952 -14.1105 -179.659
lowerback 5.99279 -3.48975 -4.94162
upperback 5.29317 -5.23673 0.218222
thorax 2.58627 -2.94436 3.14422
lowerneck -33.1643 2.81584 2.42514
upperneck 41.4763 0.744251 -1.80999
head 24.1251 -0.467245 -1.67239
rclavicle 6.55989e-015 1.19271e-015
rhumerus -44.47 -8.68495 -76.0816
rradius 42.0105
rwrist 18.519
rhand -10.1987 -8.36179
rfingers 7.12502
rthumb 15.7923 -37.7376
lclavicle 6.55989e-015 1.19271e-015
lhumerus -24.5992 -23.1894 91.458
lradius 49.734
lwrist -27.3093
lhand -6.40822 10.1284
lfingers 7.12502
lthumb 19.4399 39.1767
rfemur -34.6771 9.50486 13.8525
rtibia 32.3519
rfoot 4.85079 -4.55412
rtoes -14.995
lfemur -0.634206 -5.30964 -15.772
ltibia 51.2097
lfoot 7.89377 13.5883
ltoes -4.99542
67
root 2.0684 15.1997 23.2383 -177.914 -14.2561 -179.457
lowerback 6.39076 -3.32708 -4.88933
upperback 5.53499 -5.06986 0.198098
thorax 2.59487 -2.87946 3.10964
lowerneck -33.397 2.80928 2.64295
upperneck 41.18 0.81034 -1.96985
head 23.9469 -0.391211 -1.75575
rclavicle -6.16232e-015 3.06128e-014
rhumerus -42.985 -8.41299 -77.1367
rradius 41.7534
rwrist 18.6174
rhand -10.2179 -8.5645
rfingers 7.12502
rthumb 15.7738 -37.9418
lclavicle -6.16232e-015 3.06128e-014
lhumerus -23.7669 -22.3581 91.1188
lradius 48.0646
lwrist -27.8364
lhand -6.38713 10.3653
lfingers 7.12502
lthumb 19.4602 39.4114
rfemur -34.5061 9.20971 14.5461
rtibia 32.7548
rfoot 3.70766 -4.66997
rtoes -14.3645
lfemur -2.27174 -4.66132 -15.2903
ltibia 54.2583
lfoot 8.61524 13.5839
ltoes -4.48246
68
root 2.12282 15.1852 23.1367 -177.791 -14.4546 -179.295
lowerback 6.75642 -3.16766 -4.86861
upperback 5.73768 -4.90323 0.169256
thorax 2.58349 -2.81239 3.0816
lowerneck -33.6326 2.80876 2.88662
upperneck 40.9093 0.866949 -2.15314
head 23.7977 -0.32085 -1.86236
rclavicle 5.68524e-014 1.51076e-014
rhumerus -41.5172 -7.98775 -78.2253
rradius 41.5652
rwrist 18.6497
rhand -10.211 -8.8227
rfingers 7.12502
rthumb 15.7804 -38.1995
lclavicle 5.68524e-014 1.51076e-014
lhumerus -22.9248 -21.5857 90.8045
lradius 46.3597
lwrist -28.4318
lhand -6.37048 10.5828
lfingers 7.12502
lthumb 19.4762 39.6274
rfemur -34.3875 8.82682 15.1718
rtibia 33.0478
rfoot 2.70015 -4.72828
rtoes -13.8086
lfemur -4.07796 -4.03542 -14.8754
ltibia 57.301
lfoot 9.30963 13.8549
ltoes -3.87999
69
root 2.17687 15.1742 23.0414 -177.59 -14.6854 -179.14
lowerback 7.11133 -3.00763 -4.83408
upperback 5.88462 -4.72889 0.134124
thorax 2.518 -2.73566 3.03984
lowerneck -33.7827 2.78558 3.08683
upperneck 40.6581 0.877801 -2.29719
head 23.633 -0.274027 -1.95333
rclavicle 8.54774e-015 0
rhumerus -40.1078 -7.4148 -79.333
rradius 41.4614
rwrist 18.6518
rhand -10.18 -9.14091
rfingers 7.12502
rthumb 15.8103 -38.5153
lclavicle 8.54774e-015 0
lhumerus -22.0899 -20.8671 90.5206
lradius 44.6286
lwrist -29.1311
lhand -6.33254 10.7823
lfingers 7.12502
lthumb 19.5127 39.8232
rfemur -34.361 8.39962 15.7513
rtibia 33.2724
rfoot 1.85069 -4.7353
rtoes -13.337
lfemur -6.03441 -3.42822 -14.5063
ltibia 60.2917
lfoot 9.92996 14.4581
ltoes -3.18595
70
root 2.23069 15.167 22.9521 -177.347 -14.9555 -178.944
lowerback 7.46339 -2.8523 -4.74686
upperback 6.00964 -4.55549 0.115064
thorax 2.42894 -2.65573 2.98485
lowerneck -33.9983 2.76799 3.30571
upperneck 40.4428 0.891407 -2.47521
head 23.5276 -0.229687 -2.06951
rclavicle 2.22639e-014 -1.19271e-014
rhumerus -38.6934 -6.68739 -80.4539
rradius 41.4461
rwrist 18.5312
rhand -10.1177 -9.51118
rfingers 7.12502
rthumb 15.8703 -38.8808
lclavicle 2.22639e-014 -1.19271e-014
lhumerus -21.1963 -20.171 90.2561
lradius 42.881
lwrist -29.9141
lhand -6.238 10.9736
lfingers 7.12502
lthumb 19.6036 40.0052
rfemur -34.4129 7.96495 16.3375
rtibia 33.458
rfoot 1.1574 -4.73079
rtoes -12.9563
lfemur -8.10478 -2.86094 -14.1349
ltibia 63.1789
lfoot 10.4225 15.3619
ltoes -2.42443
71
root 2.28369 15.1631 22.8689 -177.087 -15.2417 -178.678
lowerback 7.83735 -2.69462 -4.57308
upperback 6.10716 -4.3721 0.10684
thorax 2.29301 -2.56517 2.89381
lowerneck -34.1679 2.74596 3.54471
upperneck 40.1961 0.894169 -2.66501
head 23.3796 -0.188319 -2.19594
rclavicle 4.75095e-014 -1.90833e-014
rhumerus -37.3061 -5.84594 -81.5725
rradius 41.5187
rwrist 18.306
rhand -10.01 -9.92064
rfingers 7.12502
rthumb 15.974 -39.282
lclavicle 4.75095e-014 -1.90833e-014
lhumerus -20.2831 -19.501 90.0155
lradius 41.1567
lwrist -30.702
lhand -6.05233 11.1744
lfingers 7.12502
lthumb 19.782 40.1877
rfemur -34.5321 7.5479 16.9617
rtibia 33.6209
rfoot 0.599349 -4.71401
rtoes -12.631
lfemur -10.2457 -2.32946 -13.7408
ltibia 65.918
lfoot 10.7091 16.4859
ltoes -1.81001
72
root 2.33571 15.1625 22.7915 -176.842 -15.5432 -178.328
lowerback 8.24346 -2.5469 -4.32377
upperback 6.20015 -4.19815 0.134998
thorax 2.1341 -2.47713 2.79913
lowerneck -34.2886 2.72862 3.74377
upperneck 39.9396 0.918939 -2.83836
head 23.2085 -0.146538 -2.29771
rclavicle -3.37934e-014 1.66979e-014
rhumerus -35.9059 -4.85757 -82.6584
rradius 41.6702
rwrist 17.9119
rhand -9.85372 -10.3384
rfingers 7.12502
rthumb 16.1245 -39.6876
lclavicle -3.37934e-014 1.66979e-014
lhumerus -19.3361 -18.774 89.8117
lradius 39.4643
lwrist -31.5219
lhand -5.81342 11.3467
lfingers 7.12502
lthumb 20.0117 40.3362
rfemur -34.674 7.16549 17.6447
rtibia 33.7583
rfoot 0.128654 -4.7141
rtoes -12.2986
lfemur -12.4126 -1.83588 -13.3095
ltibia 68.4651
lfoot 10.7351 17.6409
ltoes -1.51186
73
root 2.38679 15.1646 22.7192 -176.632 -15.8591 -177.91
lowerback 8.68694 -2.40388 -4.00873
upperback 6.31407 -4.02959 0.185955
thorax 1.97582 -2.3923 2.69103
lowerneck -34.2846 2.72196 3.98109
upperneck 39.9612 1.01224 -3.10186
head 22.5276 -0.108139 -2.36678
rclavicle -4.96962e-015 1.66979e-014
rhumerus -34.4682 -3.81706 -83.6792
rradius 41.8196
rwrist 17.6476
rhand -9.7155 -10.6281
rfingers 7.12502
rthumb 16.2576 -39.9665
lclavicle -4.96962e-015 1.66979e-014
lhumerus -18.335 -18.0029 89.6223
lradius 37.8255
lwrist -32.3493
lhand -5.50727 11.4937
lfingers 7.12502
lthumb 20.306 40.4522
rfemur -34.8015 6.80679 18.3833
rtibia 33.8649
rfoot -0.290093 -4.73149
rtoes -11.9758
lfemur -14.5658 -1.39318 -12.857
ltibia 70.7904
lfoot 10.4884 18.6781
ltoes -1.61013
74
root 2.43698 15.1685 22.6517 -176.457 -16.1868 -177.475
lowerback 9.17347 -2.26732 -3.68629
upperback 6.44443 -3.87206 0.251567
thorax 1.81492 -2.31519 2.59425
lowerneck -34.4814 2.65705 3.93829
upperneck 39.7485 1.02411 -3.12062
head 22.426 -0.0913513 -2.34732
rclavicle -1.86858e-014 -9.54166e-015
rhumerus -33.0265 -2.74423 -84.612
rradius 41.95
rwrist 17.5659
rhand -9.62761 -10.7329
rfingers 7.12502
rthumb 16.3422 -40.0644
lclavicle -1.86858e-014 -9.54166e-015
lhumerus -17.331 -17.1872 89.4668
lradius 36.2638
lwrist -33.1495
lhand -5.18734 11.6102
lfingers 7.12502
lthumb 20.6134 40.5357
rfemur -34.8987 6.46349 19.1309
rtibia 33.9378
rfoot -0.654937 -4.76
rtoes -11.7332
lfemur -16.6827 -1.01593 -12.4399
ltibia 72.8718
lfoot 10.01 19.4953
ltoes -2.06552
75
root 2.48687 15.174 22.5882 -176.306 -16.5365 -177.077
lowerback 9.70072 -2.14093 -3.40757
upperback 6.59719 -3.73477 0.312621
thorax 1.6617 -2.25241 2.51776
lowerneck -34.6538 2.51194 3.57172
upperneck 39.6598 0.952634 -2.87357
head 22.3948 -0.123664 -2.15944
rclavicle 7.15625e-014 -5.56597e-015
rhumerus -31.5795 -1.68465 -85.4515
rradius 42.0342
rwrist 17.7784
rhand -9.59875 -10.636
rfingers 7.12502
rthumb 16.37 -39.9651
lclavicle 7.15625e-014 -5.56597e-015
lhumerus -16.3264 -16.318 89.3193
lradius 34.7709
lwrist -34.033
lhand -4.88815 11.6538
lfingers 7.12502
lthumb 20.9009 40.5478
rfemur -34.9607 6.12567 19.8345
rtibia 33.9901
rfoot -0.977615 -4.81353
rtoes -11.6059
lfemur -18.7484 -0.723734 -12.1155
ltibia 74.6943
lfoot 9.35459 20.0569
ltoes -2.75288
76
root 2.53663 15.1806 22.5279 -176.162 -16.9081 -176.764
lowerback 10.2443 -2.01216 -3.20621
upperback 6.76832 -3.60227 0.342395
thorax 1.52423 -2.19623 2.45066
lowerneck -34.8181 2.32121 3.05316
upperneck 39.6413 0.818203 -2.48042
head 22.4065 -0.184078 -1.88859
rclavicle -7.79236e-014 -3.18055e-015
rhumerus -30.1551 -0.716209 -86.2096
rradius 42.0798
rwrist 18.2463
rhand -9.62466 -10.4012
rfingers 7.12502
rthumb 16.3451 -39.7325
lclavicle -7.79236e-014 -3.18055e-015
lhumerus -15.3572 -15.492 89.1772
lradius 33.3805
lwrist -34.9542
lhand -4.61658 11.6823
lfingers 7.12502
lthumb 21.1618 40.5473
rfemur -35.0061 5.80609 20.4407
rtibia 34.0439
rfoot -1.25561 -4.91301
rtoes -11.5838
lfemur -20.7608 -0.524385 -11.937
ltibia 76.2524
lfoot 8.60289 20.4183
ltoes -3.52037
77
root 2.58661 15.1882 22.4702 -176.006 -17.3037 -176.569
lowerback 10.8032 -1.88958 -3.09893
upperback 6.95694 -3.48864 0.327528
thorax 1.40284 -2.15384 2.38979
lowerneck -34.8801 2.0834 2.35868
upperneck 39.6689 0.616273 -1.90636
head 22.419 -0.274372 -1.51104
rclavicle 3.06128e-014 -1.82882e-014
rhumerus -28.7457 0.145865 -86.9047
rradius 42.0909
rwrist 18.8949
rhand -9.68091 -10.0877
rfingers 7.12502
rthumb 16.2909 -39.4234
lclavicle 3.06128e-014 -1.82882e-014
lhumerus -14.4238 -14.7192 89.0257
lradius 32.1082
lwrist -35.8717
lhand -4.35875 11.7237
lfingers 7.12502
lthumb 21.4094 40.5608
rfemur -35.0571 5.51802 20.9098
rtibia 34.127
rfoot -1.50418 -5.07819
rtoes -11.5916
lfemur -22.7109 -0.415785 -11.9331
ltibia 77.5459
lfoot 7.78075 20.6832
ltoes -4.18148
78
root 2.63695 15.1963 22.4143 -175.828 -17.7236 -176.488
lowerback 11.3501 -1.769 -3.08825
upperback 7.17116 -3.3899 0.275771
thorax 1.32101 -2.12418 2.3428
lowerneck -34.9934 1.83667 1.65594
upperneck 39.7212 0.396392 -1.31973
head 22.4694 -0.370445 -1.13176
rclavicle 5.1684e-014 -3.89618e-014
rhumerus -27.3345 0.923385 -87.5506
rradius 42.1165
rwrist 19.4535
rhand -9.72079 -9.8223
rfingers 7.12502
rthumb 16.2525 -39.1611
lclavicle 5.1684e-014 -3.89618e-014
lhumerus -13.5003 -14.0278 88.8666
lradius 30.9527
lwrist -36.7474
lhand -4.09392 11.8062
lfingers 7.12502
lthumb 21.6638 40.6142
rfemur -35.1313 5.27177 21.2461
rtibia 34.2578
rfoot -1.7418 -5.32818
rtoes -11.5822
lfemur -24.6035 -0.382814 -12.0951
ltibia 78.5816
lfoot 6.96339 20.925
ltoes -4.64702
79
root 2.6877 15.205 22.3592 -175.619 -18.1669 -176.505
lowerback 11.8699 -1.64428 -3.15456
upperback 7.40414 -3.29585 0.189045
thorax 1.27765 -2.10091 2.29956
lowerneck -35.0731 1.63998 1.16654
upperneck 39.6649 0.221163 -0.89067
head 22.4396 -0.434495 -0.85721
rclavicle 1.07344e-014 2.38542e-015
rhumerus -25.9235 1.59459 -88.1525
rradius 42.1364
rwrist 19.872
rhand -9.72281 -9.65683
rfingers 7.12502
rthumb 16.2506 -38.9958
lclavicle 1.07344e-014 2.38542e-015
lhumerus -12.5943 -13.456 88.7072
lradius 29.9077
lwrist -37.5493
lhand -3.83468 11.9362
lfingers 7.12502
lthumb 21.9127 40.7153
rfemur -35.2377 5.06996 21.4649
rtibia 34.4412
rfoot -1.95089 -5.65339
rtoes -11.5915
lfemur -26.4375 -0.40815 -12.401
ltibia 79.3668
lfoot 6.2197 21.2214
ltoes -4.94978
